{"title":"Skyline.2010.R5.H264.Feel-Free","uid":6010409,"size":895156934,"categoryP":"video","categoryS":"movies","magnet":"?xt=urn:btih:a6b321bf8cedca1c6a75992b181617e8f61628a1&amp;dn=Skyline.2010.R5.H264.Feel-Free&amp;tr=udp%3A%2F%2Ftracker.openbittorrent.com%3A80&amp;tr=udp%3A%2F%2Fopen.demonii.com%3A1337&amp;tr=udp%3A%2F%2Ftracker.coppersurfer.tk%3A6969&amp;tr=udp%3A%2F%2Fexodus.desync.com%3A6969","seeders":0,"leechers":0,"uploader":"hiest","files":-1,"time":1291443250,"description":"Genre:Sci-Fi | Thriller\nLanguage:English\nIMDb:http://www.imdb.com/title/tt1564585/\nSource:DVD9 R5\n\n\nGeneral\nComplete name :Skyline.2010.R5.H264.Feel-Free\nFormat : MPEG-4\nFormat profile : Base Media\nCodec ID : mp42\nFile size : 851 MiB\nDuration : 1h 28mn\nOverall bit rate : 1 341 Kbps \nVideo #1\nCodec ID : avc1\nCodec ID/Info : Advanced Video Coding\nDuration : 1h 28mn\nBit rate mode : Variable\nBit rate : 860 Kbps\nWidth : 720 pixels\nHeight : 384 pixels\nDisplay aspect ratio : 1.875\nFrame rate mode : Constant\nFrame rate : 23.976 fps\nResolution : 24 bits\nColorimetry : 4:2:0\nScan type : Progressive\nBits/(Pixel*Frame) : 0.130\nStream size : 546 MiB (64%)\nAudio #2\nID : 2\nFormat : AAC\nFormat/Info : Advanced Audio Codec\nFormat version : Version 4\nFormat profile : LC\nFormat settings, SBR : No\nCodec ID : 40\nDuration : 1h 28mn\nBit rate mode : Constant\nBit rate : 477 Kbps\nNominal bit rate : 480 Kbps\nChannel(s) : 6 channels\nChannel positions : Front: L C R, Rear: L R, LFE\nSampling rate : 48.0 KHz\nResolution : 16 bits\nStream size : 303 MiB (36%)\n\nPlot:\nStrange lights descend on the city of Los Angeles, drawing people outside like moths to a flame where\n\n\n\n\n\n\n\n================================== &lt;a href=&quot;\nhttp://thepiratebay.se/user/hiest&quot; rel=&quot;nofollow&quot; target=&quot;_NEW&quot;&gt;\nhttp://thepiratebay.se/user/hiest&lt;/a&gt;\n==================================\n\n\n","torrent":{"xt":"urn:btih:a6b321bf8cedca1c6a75992b181617e8f61628a1","amp;dn":"Skyline.2010.R5.H264.Feel-Free","amp;tr":["udp%3A%2F%2Ftracker.openbittorrent.com%3A80","udp%3A%2F%2Fopen.demonii.com%3A1337","udp%3A%2F%2Ftracker.coppersurfer.tk%3A6969","udp%3A%2F%2Fexodus.desync.com%3A6969"],"infoHash":"a6b321bf8cedca1c6a75992b181617e8f61628a1","infoHashBuffer":{"type":"Buffer","data":[166,179,33,191,140,237,202,28,106,117,153,43,24,22,23,232,246,22,40,161]},"announce":[],"urlList":[]}}